<svg clip-rule="evenodd" fill-rule="evenodd" stroke-linejoin="round" stroke-miterlimit="2"
     viewBox="0 0 64 64" xmlns="http://www.w3.org/2000/svg">

  <ellipse cx="21.624" cy="22.613"
           rx="11.099" ry="8.306"
           fill="#1e1e2e"
           transform="matrix(2.88315 0 0 3.85264 -30.3444 -55.1209)"/>

  <g transform="translate(14 14) scale(2.25)">
    <path fill="#cad3f5" d="
      M0 4a2 2 0 0 1 2-2h12a2 2 0 0 1 2 2v8a2 2 0 0 1-2 2H2a2 2 0 0 1-2-2zm2-1
      a1 1 0 0 0-1 1v.217l7 4.2 7-4.2V4a1 1 0 0 0-1-1zm13 2.383-4.708 2.825L15
      11.105zm-.034 6.876-5.64-3.471L8 9.583l-1.326-.795-5.64 3.47A1 1 0 0 0
      2 13h12a1 1 0 0 0 .966-.741M1 11.105l4.708-2.897L1 5.383z"/>
  </g>

</svg>
