<svg width="100%" height="170" viewBox="0 0 900 170" xmlns="http://www.w3.org/2000/svg" role="img" aria-label="João Pedro N.">
  <defs>
    <!-- soft bloom/glow for text -->
    <filter id="softGlow" x="-50%" y="-50%" width="200%" height="200%">
      <feGaussianBlur stdDeviation="2.8" result="blur"/>
      <feColorMatrix type="matrix" values="
        1 0 0 0 0
        0 1 0 0 0
        0 0 1 0 0
        0 0 0 0.85 0" result="glow"/>
      <feMerge>
        <feMergeNode in="glow"/>
        <feMergeNode in="SourceGraphic"/>
      </feMerge>
    </filter>

    <!-- soft shadow for pill -->
    <filter id="shadow" x="-50%" y="-50%" width="200%" height="200%">
      <feDropShadow dx="0" dy="2" stdDeviation="2.2" flood-color="#11111b" flood-opacity="0.8"/>
    </filter>
  </defs>

  <!-- pill backdrop (more bluish mocha) -->
  <rect x="80" y="44" width="740" height="86" rx="18" ry="18" fill="#181825" opacity="0.97" filter="url(#shadow)"/>
  <rect x="80" y="44" width="740" height="86" rx="18" ry="18" fill="none" stroke="#313244" stroke-width="2"/>

  <!-- rainbow strip -->
  <rect x="120.00" y="18" width="47.14" height="12" rx="6" ry="6" fill="#f5e0dc"/><rect x="167.14" y="18" width="47.14" height="12" rx="0" ry="0" fill="#f2cdcd"/><rect x="214.29" y="18" width="47.14" height="12" rx="0" ry="0" fill="#f5c2e7"/><rect x="261.43" y="18" width="47.14" height="12" rx="0" ry="0" fill="#cba6f7"/><rect x="308.57" y="18" width="47.14" height="12" rx="0" ry="0" fill="#f38ba8"/><rect x="355.71" y="18" width="47.14" height="12" rx="0" ry="0" fill="#eba0ac"/><rect x="402.86" y="18" width="47.14" height="12" rx="0" ry="0" fill="#fab387"/><rect x="450.00" y="18" width="47.14" height="12" rx="0" ry="0" fill="#f9e2af"/><rect x="497.14" y="18" width="47.14" height="12" rx="0" ry="0" fill="#a6e3a1"/><rect x="544.29" y="18" width="47.14" height="12" rx="0" ry="0" fill="#94e2d5"/><rect x="591.43" y="18" width="47.14" height="12" rx="0" ry="0" fill="#89dceb"/><rect x="638.57" y="18" width="47.14" height="12" rx="0" ry="0" fill="#74c7ec"/><rect x="685.71" y="18" width="47.14" height="12" rx="0" ry="0" fill="#89b4fa"/><rect x="732.86" y="18" width="47.14" height="12" rx="6" ry="6" fill="#b4befe"/>

  <!-- title with bloom -->
  <text x="50%" y="92" text-anchor="middle" dominant-baseline="middle"
        font-family="JetBrains Mono, 'Fira Code', Consolas, monospace"
        font-size="54" font-weight="800" letter-spacing="1.2"
        filter="url(#softGlow)">
    <tspan fill="#f5e0dc">J</tspan><tspan fill="#f2cdcd">o</tspan><tspan fill="#f5c2e7">ã</tspan><tspan fill="#cba6f7">o</tspan><tspan xml:space="preserve"> </tspan><tspan fill="#eba0ac">P</tspan><tspan fill="#f9e2af">e</tspan><tspan fill="#a6e3a1">d</tspan><tspan fill="#94e2d5">r</tspan><tspan fill="#89dceb">o</tspan><tspan xml:space="preserve"> </tspan><tspan fill="#89b4fa">N</tspan><tspan fill="#b4befe">.</tspan>
  </text>

  <!-- tiny catppuccin dots (decor) -->
  <circle cx="110" cy="92" r="3.5" fill="#cba6f7"/>
  <circle cx="122" cy="92" r="3.5" fill="#89b4fa"/>
  <circle cx="134" cy="92" r="3.5" fill="#94e2d5"/>
</svg>
