<svg width="100%" height="132" viewBox="0 0 900 132" xmlns="http://www.w3.org/2000/svg" role="img" aria-label="João Pedro N.">
  <defs>
    <filter id="softGlow" x="-50%" y="-50%" width="200%" height="200%">
      <feGaussianBlur stdDeviation="2.8" result="blur"/>
      <feColorMatrix type="matrix" values="1 0 0 0 0 0 1 0 0 0 0 0 1 0 0 0 0 0 0.85 0" result="glow"/>
      <feMerge><feMergeNode in="glow"/><feMergeNode in="SourceGraphic"/></feMerge>
    </filter>
    <filter id="shadow" x="-50%" y="-50%" width="200%" height="200%">
      <feDropShadow dx="0" dy="2" stdDeviation="2.2" flood-color="#11111b" flood-opacity="0.8"/>
    </filter>
    <clipPath id="roundedBar">
      <rect x="80" y="18" width="740" height="12" rx="6" ry="6"/>
    </clipPath>
  </defs>
  
  <rect x="80" y="44" width="740" height="86" rx="18" ry="18" fill="#1e1e2e" filter="url(#shadow)"/>
  <rect x="80" y="44" width="740" height="86" rx="18" ry="18" fill="none" stroke="#313244" stroke-width="2"/>
  
  <g clip-path="url(#roundedBar)">
    <rect x="80" y="18" width="54.5" height="12" fill="#f5e0dc"/>
    <rect x="132.86" y="18" width="54.5" height="12" fill="#f2cdcd"/>
    <rect x="185.71" y="18" width="54.5" height="12" fill="#f5c2e7"/>
    <rect x="238.57" y="18" width="54.5" height="12" fill="#cba6f7"/>
    <rect x="291.43" y="18" width="54.5" height="12" fill="#f38ba8"/>
    <rect x="344.29" y="18" width="54.5" height="12" fill="#eba0ac"/>
    <rect x="397.14" y="18" width="54.5" height="12" fill="#fab387"/>
    <rect x="450" y="18" width="54.5" height="12" fill="#f9e2af"/>
    <rect x="502.86" y="18" width="54.5" height="12" fill="#a6e3a1"/>
    <rect x="555.71" y="18" width="54.5" height="12" fill="#94e2d5"/>
    <rect x="608.57" y="18" width="54.5" height="12" fill="#89dceb"/>
    <rect x="661.43" y="18" width="54.5" height="12" fill="#74c7ec"/>
    <rect x="714.29" y="18" width="54.5" height="12" fill="#89b4fa"/>
    <rect x="767.14" y="18" width="54.5" height="12" fill="#b4befe"/>
  </g>
  
  <text x="450" y="91" text-anchor="middle" dominant-baseline="middle" font-family="JetBrains Mono, 'Fira Code', Consolas, monospace" font-size="54" font-weight="800" letter-spacing="1.2" filter="url(#softGlow)">
    <tspan fill="#f5e0dc">J</tspan><tspan fill="#f2cdcd">o</tspan><tspan fill="#f5c2e7">ã</tspan><tspan fill="#cba6f7">o</tspan><tspan xml:space="preserve"> </tspan><tspan fill="#eba0ac">P</tspan><tspan fill="#f9e2af">e</tspan><tspan fill="#a6e3a1">d</tspan><tspan fill="#94e2d5">r</tspan><tspan fill="#89dceb">o</tspan><tspan xml:space="preserve"> </tspan><tspan fill="#89b4fa">N</tspan><tspan fill="#b4befe">.</tspan>
  </text>
</svg>
